name processed_emg_signals
nRows=99
nColumns=7
 
endheader
time	LGLTMED	LRF	LADDLONG	LST	LTA	LGM
0.98	0.2071571568023761	0.059498102725109	0.20422797457125	0.4919724586405342	0.1033283323626346	0.0769021896012238
0.981	0.2066565967647581	0.0596974889542683	0.2042868787821452	0.4963796313290519	0.1015664292845888	0.076661954505781
0.982	0.2061571451115133	0.0599143626052142	0.2043492570343472	0.500719302096673	0.0998665466121168	0.0764393452428608
0.983	0.2056593202822278	0.0601475075842357	0.2044140997759963	0.5049895094311156	0.0982280149152307	0.0762351818578991
0.984	0.2051636845939918	0.0603957320622073	0.2044804062090355	0.5091883440902177	0.0966501592505095	0.0760502999345534
0.985	0.2046708445411118	0.0606578701790462	0.2045471865958517	0.5133139509540439	0.0951322994888403	0.0758855503346303
0.986	0.2041814510345164	0.0609327836984562	0.2046134645448758	0.5173645307709971	0.0936737506457078	0.0757417989184341
0.987	0.2036961995776685	0.0612193636110989	0.2046782792695356	0.5213383417858566	0.0922738232132738	0.0756199262446404
0.988	0.2032158303752414	0.0615165316840035	0.2047406878152246	0.5252337012371581	0.0909318234934731	0.0755208272489229
0.989	0.2027411283719424	0.0618232419542736	0.2047997672488432	0.5290489867121307	0.0896470539312166	0.0754454109003032
0.99	0.2022729232185746	0.0621384821650962	0.2048546168056196	0.5327826373486121	0.0884188134468205	0.0753945998343993
0.991	0.2018120891632395	0.0624612751419991	0.2049043599876238	0.5364331548753222	0.0872463977666042	0.0753693299628684
0.992	0.2013595448663127	0.0627906801074971	0.2049481466093027	0.5399991044834659	0.0861290997507403	0.0753705500584812
0.993	0.2009162531371815	0.0631257939321196	0.2049851547856043	0.5434791155239284	0.0850662097172512	0.0753992213154848
0.994	0.2004832205916902	0.0634657523200943	0.2050145928590376	0.5468718820254759	0.084057015761291	0.0754563168849267
0.995	0.2000614972290083	0.063809730928091	0.2050357012621795	0.5501761630303263	0.0831008040688935	0.0755428213845783
0.996	0.1996521759264685	0.0641569464155898	0.2050477543120262	0.5533907827445557	0.0821968592248843	0.075659730382955
0.997	0.1992563918511432	0.0645066574258817	0.2050500619322596	0.556514630502211	0.0813444645149227	0.0758080498569818
0.998	0.1988753217872416	0.0648581654967643	0.205041971299013	0.5595466605435058	0.0805429022221319	0.0759887956225247
0.999	0.1985101833779071	0.0652108159002368	0.2050228684058817	0.5624858916091522	0.0797914539189663	0.0762029927372082
1.0	0.1981622342814671	0.065563998410767	0.2049921795434065	0.5653314063544249	0.0790894007551036	0.0764516748746101
1.0010000000000001	0.1978327712418573	0.065917148001604	0.2049493726888834	0.5680823505874766	0.0784360237421699	0.0767358836693114
1.002	0.1975231290740869	0.0662697454688331	0.204893958802442	0.5707379323372448	0.0778306040361199	0.0770566680322134
1.0030000000000001	0.1972346795653863	0.0666213179828551	0.2048254930257107	0.5732974207568458	0.0772724232180424	0.0774150834356947
1.004	0.1969688302931808	0.0669714395669003	0.2047435757797809	0.5757601448697378	0.0767607635741804	0.077812191168313
1.0050000000000001	0.1967270233610837	0.0673197315022307	0.2046478537598593	0.5781254921678872	0.076294908375781	0.0782490575589418
1.006	0.1965107340544368	0.0676658626596557	0.2045380208243801	0.5803929070730353	0.0758741421593277	0.0787267531702738
1.0070000000000001	0.1963214694171964	0.0680095497568603	0.2044138187769856	0.5825618892739107	0.075497751007614	0.0792463519619701
1.008	0.1961607667524717	0.0683505575413319	0.204275038040877	0.5846319919531914	0.0751650228318852	0.0798089304239363
1.0090000000000001	0.1960301920494169	0.0686886988985264	0.2041215182250168	0.5866028199187268	0.0748752476552673	0.0804155666801887
1.01	0.1959313383395431	0.0690238348853821	0.203953148582701	0.5884740276537924	0.0746277178973639	0.0810673395640131
1.0110000000000001	0.1958658239854491	0.0693558746893529	0.2037698683630979	0.5902453173013019	0.0744217286597675	0.0817653276651595
1.012	0.1958352909050688	0.0696847755134506	0.2035716670565203	0.5919164365974475	0.0742565780120002	0.0825106083499904
1.0130000000000001	0.1958414027339683	0.070010542387889	0.2033585845346993	0.5934871767707889	0.0741315672771964	0.0833042567557594
1.014	0.1958858429286699	0.0703332279091234	0.2031307110871728	0.5949573704229866	0.0740460013167329	0.0841473447605678
1.0150000000000001	0.1959703128130998	0.0706529319071119	0.2028881873553267	0.5963268894072409	0.0739991888128847	0.0850409399307257
1.016	0.1960965295709325	0.0709698010418857	0.2026312041655392	0.5975956427204273	0.0739904425484518	0.085986104447536
1.0170000000000001	0.1962662241862906	0.0712840283306983	0.2023600022634621	0.5987635744246478	0.0740190796822206	0.0869838940154483
1.018	0.1964811393347928	0.0715958526071045	0.2020748719514969	0.5998306616134198	0.0740844220189737	0.0880353567534232
1.0190000000000001	0.1967430272271679	0.0719055579133741	0.2017761526318344	0.6007969124370133	0.0741857962727767	0.0891415320714486
1.02	0.1970536474072539	0.0722134728276952	0.2014642322572351	0.6016623642005128	0.0743225343223056	0.0903034495338756
1.0210000000000001	0.1974147645052299	0.0725199697274915	0.2011395466918767	0.6024270815478963	0.0744939734571567	0.0915221277113594
1.022	0.1978281459473996	0.0728254639902668	0.2008025789843456	0.6030911547448498	0.074699456614128	0.0927985730228838
1.0230000000000001	0.1982955596227842	0.0731304131332841	0.2004538585546263	0.6036546980724232	0.0749383326026575	0.0941337785694722
1.024	0.1988187715071322	0.0734353158933335	0.2000939602969246	0.604117848342825	0.0752099563185653	0.0955287229607326
1.025	0.1993995432448657	0.073740711247897	0.1997235035996278	0.6044807635475432	0.0755136889453452	0.0969843691356255
1.026	0.2000396296894822	0.0740471773786907	0.1993431512835126	0.6047436216469546	0.0758488981422796	0.0985016631783376
1.027	0.200740776402829	0.0743553305789711	0.1989536084593734	0.6049066195092733	0.0762149582186093	0.1000815331302655
1.028	0.201504717114306	0.0746658241056424	0.1985556213057927	0.6049699720054055	0.0766112502930705	0.1017248877987249
1.029	0.20233317114114	0.0749793469775549	0.1981499757686692	0.6049339112646113	0.0770371624382129	0.1034326155631722
1.03	0.2032278407719496	0.0752966227213594	0.1977374961842772	0.6047986860944808	0.0774920898092457	0.105205583179468
1.031	0.2041904086161629	0.0756184080665077	0.1973190438284003	0.6045645615668863	0.0779754347572987	0.1070446345826296
1.032	0.2052225349228751	0.0759454915911256	0.1968955153950483	0.6042318187699685	0.0784866069272137	0.1089505896884669
1.033	0.2063258548733388	0.0762786923207056	0.1964678414081427	0.6038007547245287	0.0790250233399764	0.1109242431942252
1.034	0.2075019758513821	0.0766188582817556	0.1960369845698093	0.6032716824613582	0.079590108459873	0.1129663633782308
1.035	0.2087524746969021	0.0769668650128539	0.195603938048773	0.6026449312544818	0.0801812942464674	0.1150776908982782
1.036	0.2100788949469354	0.0773236140355324	0.1951697237126863	0.6019208470036773	0.0807980201915234	0.1172589375885238
1.037	0.2114827440700767	0.0776900312875627	0.1947353903081262	0.6010997927586165	0.0814397333412846	0.1195107852543725
1.038	0.2129654906991135	0.0780670655210956	0.1943020115922639	0.6001821493761709	0.0821058883047104	0.1218338844650167
1.039	0.2145285618676787	0.0784556866678827	0.1938706844201905	0.5991683163024862	0.0827959472486166	0.1242288533433862
1.04	0.2161733402564331	0.0788568841737449	0.1934425267917837	0.5980587124714194	0.083509379880925	0.1266962763534761
1.041	0.2179011614541287	0.0792716653042774	0.1930186758625	0.5968537773115252	0.0842456634234422	0.1292367030853378
1.042	0.2197133112390625	0.0797010534236262	0.1926002859224647	0.5955539718538562	0.0850042825759089	0.1318506470383175
1.043	0.2216110228862065	0.0801460862482925	0.1921885263485896	0.5941597799327067	0.0857847294731141	0.1345385844035062
1.044	0.2235954745052428	0.0806078140779283	0.1917845795343831	0.5926717094708155	0.0865865036372408	0.1373009528465624
1.045	0.2256677864140974	0.0810872980048795	0.1913896388023344	0.5910902938394769	0.0874091119276592	0.1401381502925745
1.046	0.2278290185527877	0.0815856081043835	0.1910049063029311	0.5894160932835038	0.0882520684904474	0.1430505337145315
1.047	0.2300801679413429	0.0821038216071228	0.1906315909045517	0.587649696400428	0.0891148947099403	0.1460384179272117
1.048	0.2324221661859909	0.0826430210557329	0.1902709060778498	0.5857917216632206	0.0899971191644336	0.1491020743883602
1.049	0.2348558770371099	0.0832042924467314	0.1899240677779079	0.5838428189759235	0.0908982775879366	0.1522417300092207
1.05	0.2373820940028088	0.0837887233592677	0.1895922923269112	0.5818036712515005	0.091817912839789	0.1554575659765283
1.051	0.2400015380216188	0.0843974010720442	0.189276794300155	0.5796749960009779	0.0927555748835768	0.1587497165884207
1.052	0.2427148551980375	0.085031410669701	0.1889787844177772	0.5774575469224936	0.093710820776692	0.1621182681066064
1.053	0.2455226146045644	0.0856918331401286	0.1886994674453349	0.5751521154778854	0.0946832146715539	0.165563257627302
1.054	0.248425306154697	0.0863797434639692	0.188440040106545	0.5727595324434357	0.0956723278293683	0.1690846719733574
1.055	0.251423338550699	0.0870962086977612	0.1882016890116448	0.5702806694202326	0.0966777386470559	0.1726824466100866
1.056	0.2545170373111129	0.0878422860522963	0.1879855886052666	0.567716440289073	0.0976990326979186	0.1763564645872779
1.057	0.257706642882088	0.0886190209677904	0.187792899136955	0.565067802594664	0.0987358027863326	0.1801065555100885
1.058	0.2609923088373052	0.089427445187713	0.1876247646577156	0.5623357588448538	0.0997876490167588	0.183932494542155
1.059	0.2643741001700334	0.0902685748330861	0.18748231104517	0.5595213577116925	0.1008541788770611	0.1878340014449007
1.06	0.267851991681336	0.0911434084792802	0.1873666440600445	0.5566256951225903	0.1019350073359608	0.1918107396576197
1.061	0.2714258664674426	0.0920529252376718	0.1872788474363538	0.5536499152309872	0.103029756954155	0.1958623154230588
1.062	0.2750955145092993	0.0929980828445256	0.1872199810076256	0.5505952112565136	0.1041380580083803	0.1999882769632629
1.063	0.2788606313661884	0.0939798157597103	0.1871910788716154	0.5474628261845248	0.1052595486275775	0.2041881137102071
1.064	0.2827208169754747	0.0949990332778168	0.1871931475960515	0.5442540533144219	0.1063938749402201	0.2084612555952869
1.065	0.28667557456013	0.0960566176541697	0.1872271644676114	0.5409702366459174	0.1075406912317058	0.2128070724015278
1.066	0.2907243096462998	0.0971534222483363	0.1872940757863663	0.537612771092893	0.1086996601107316	0.2172248731816328
1.067	0.2948663291940345	0.0982902696874492	0.1873947952076447	0.5341831025158359	0.1098704526835104	0.2217139057445657
1.068	0.299100840845011	0.0994679500519522	0.1875302021326769	0.5306827275658771	0.1110527487347542	0.2262733562128282
1.069	0.3034269522918905	0.1006872190862368	0.1877011401499161	0.5271131933362624	0.1122462369143527	0.2309023486521904
1.07	0.3078436707744031	0.1019487964369385	0.1879084155282367	0.5234760968192961	0.1134506149287129	0.2355999447751406
1.071	0.31234990270793	0.1032533639214993	0.1881527957640333	0.5197730841686532	0.1146655897354671	0.240365143719001
1.072	0.3169444534500571	0.1046015638299531	0.1884350081833586	0.5160058497681218	0.1158908777402672	0.2451968818991396
1.073	0.321626027210488	0.105993997262711	0.1887557386005052	0.512176135109356	0.1171262049939739	0.2500940329375309
1.074	0.326393227109722	0.1074312225072435	0.1891156300338119	0.5082857274832719	0.1183713073885303	0.2550554076663338
1.075	0.3312445553909658	0.1089137534564837	0.1895152814791922	0.5043364584915052	0.1196259308494332	0.2600797542061117
1.076	0.336178413789837	0.1104420580717143	0.1899552467413955	0.50033020238557	0.1208898315226716	0.2651657581176325
1.077	0.3411931040662225	0.1120165568924346	0.1904360333233041	0.4962688742423048	0.1221627759536781	0.2703120426262196
1.078	0.3462868287014826	0.1136376215959939	0.1909581013732016	0.4921544279855535	0.1234445412556151	0.2755171689169846
